<svg width="56" height="55" viewBox="0 0 56 55" fill="none" xmlns="http://www.w3.org/2000/svg">
<path d="M53 27H52.5V27.5V49.1667C52.5 50.483 52.0169 51.7381 51.1681 52.6577C50.3206 53.5759 49.18 54.0833 48 54.0833H8C6.82003 54.0833 5.67944 53.5759 4.83187 52.6577C3.98305 51.7381 3.5 50.483 3.5 49.1667V27.5V27H3C2.48307 27 1.97837 26.7779 1.59963 26.3676C1.21966 25.956 1 25.3897 1 24.7917V16.6667C1 15.3503 1.48305 14.0952 2.33187 13.1756C3.17944 12.2574 4.32003 11.75 5.5 11.75H13.425H14.1131L13.9006 11.0956C13.6344 10.276 13.4988 9.41248 13.5 8.54234V8.54166C13.5 6.50704 14.2464 4.56301 15.5641 3.13555C16.8805 1.70944 18.657 0.916656 20.5 0.916656C22.8111 0.916656 24.8665 2.16849 26.1627 4.05785L27.075 5.38759V5.36587L27.5872 6.11541L28 6.71956L28.4128 6.11541L28.925 5.36587V5.38759L29.8373 4.05785C31.1335 2.16849 33.1889 0.916656 35.5 0.916656C37.343 0.916656 39.1195 1.70944 40.4359 3.13555C41.7536 4.56301 42.5 6.50704 42.5 8.54166V8.54234C42.5012 9.41248 42.3656 10.276 42.0994 11.0956L41.8869 11.75H42.575H50.5C51.68 11.75 52.8206 12.2574 53.6681 13.1756C54.5169 14.0952 55 15.3503 55 16.6667V24.7917C55 25.3897 54.7803 25.956 54.4004 26.3676C54.0216 26.7779 53.5169 27 53 27ZM7.5 49.1667V49.6667H8H25.5H26V49.1667V27.5V27H25.5H8H7.5V27.5V49.1667ZM48 49.6667H48.5V49.1667V27.5V27H48H30.5H30V27.5V49.1667V49.6667H30.5H48ZM5.5 16.1667H5V16.6667V22.0833V22.5833H5.5H25.5H26V22.0833V16.6667V16.1667H25.5H5.5ZM18.3648 6.28744L18.7322 6.62658L18.3648 6.28744C17.8071 6.89162 17.5 7.70309 17.5 8.54166C17.5 9.38022 17.8071 10.1917 18.3648 10.7959C18.9238 11.4014 19.6908 11.75 20.5 11.75C21.3092 11.75 22.0762 11.4014 22.6352 10.7959C23.1929 10.1917 23.5 9.38022 23.5 8.54166C23.5 7.70309 23.1929 6.89162 22.6352 6.28744L22.2678 6.62658L22.6352 6.28744C22.0762 5.68191 21.3092 5.33332 20.5 5.33332C19.6908 5.33332 18.9238 5.68191 18.3648 6.28744ZM30.5 16.1667H30V16.6667V22.0833V22.5833H30.5H50.5H51V22.0833V16.6667V16.1667H50.5H30.5ZM35.5 5.33332C34.6908 5.33332 33.9238 5.68191 33.3648 6.28744C32.8071 6.89162 32.5 7.70309 32.5 8.54166C32.5 9.38022 32.8071 10.1917 33.3648 10.7959C33.9238 11.4014 34.6908 11.75 35.5 11.75C36.3092 11.75 37.0762 11.4014 37.6352 10.7959C38.1929 10.1917 38.5 9.38022 38.5 8.54166C38.5 7.70309 38.1929 6.89162 37.6352 6.28744C37.0762 5.68191 36.3092 5.33332 35.5 5.33332Z" fill="#34C202" stroke="white"/>
</svg>
