<svg width="151" height="151" viewBox="0 0 151 151" fill="none" xmlns="http://www.w3.org/2000/svg">
<path d="M138.416 75.5V125.833C138.416 129.171 137.091 132.371 134.731 134.731C132.371 137.091 129.17 138.417 125.833 138.417H25.1665C21.8292 138.417 18.6286 137.091 16.2687 134.731C13.9089 132.371 12.5832 129.171 12.5832 125.833V75.5C10.9145 75.5 9.31421 74.8371 8.13429 73.6572C6.95437 72.4773 6.2915 70.877 6.2915 69.2083V50.3333C6.2915 46.996 7.61724 43.7954 9.97708 41.4356C12.3369 39.0757 15.5375 37.75 18.8748 37.75H38.8194C38.1084 35.7287 37.7467 33.601 37.7498 31.4583C37.7498 26.4524 39.7384 21.6514 43.2782 18.1117C46.8179 14.5719 51.6189 12.5833 56.6248 12.5833C62.9165 12.5833 68.4532 15.7291 71.9136 20.385V20.3221L75.4998 25.1666L79.0861 20.3221V20.385C82.5465 15.7291 88.0832 12.5833 94.3748 12.5833C99.3808 12.5833 104.182 14.5719 107.721 18.1117C111.261 21.6514 113.25 26.4524 113.25 31.4583C113.253 33.601 112.891 35.7287 112.18 37.75H132.125C135.462 37.75 138.663 39.0757 141.023 41.4356C143.382 43.7954 144.708 46.996 144.708 50.3333V69.2083C144.708 70.877 144.045 72.4773 142.865 73.6572C141.685 74.8371 140.085 75.5 138.416 75.5ZM25.1665 125.833H69.2082V75.5H25.1665V125.833ZM125.833 125.833V75.5H81.7915V125.833H125.833ZM56.6248 25.1666C54.9562 25.1666 53.3559 25.8295 52.176 27.0094C50.996 28.1893 50.3332 29.7897 50.3332 31.4583C50.3332 33.127 50.996 34.7273 52.176 35.9072C53.3559 37.0871 54.9562 37.75 56.6248 37.75C58.2935 37.75 59.8938 37.0871 61.0737 35.9072C62.2536 34.7273 62.9165 33.127 62.9165 31.4583C62.9165 29.7897 62.2536 28.1893 61.0737 27.0094C59.8938 25.8295 58.2935 25.1666 56.6248 25.1666ZM94.3748 25.1666C92.7062 25.1666 91.1059 25.8295 89.9259 27.0094C88.746 28.1893 88.0832 29.7897 88.0832 31.4583C88.0832 33.127 88.746 34.7273 89.9259 35.9072C91.1059 37.0871 92.7062 37.75 94.3748 37.75C96.0435 37.75 97.6438 37.0871 98.8237 35.9072C100.004 34.7273 100.666 33.127 100.666 31.4583C100.666 29.7897 100.004 28.1893 98.8237 27.0094C97.6438 25.8295 96.0435 25.1666 94.3748 25.1666ZM18.8748 50.3333V62.9166H69.2082V50.3333H18.8748ZM81.7915 50.3333V62.9166H132.125V50.3333H81.7915Z" fill="#E0E0E0"/>
</svg>
