<svg width="151" height="151" viewBox="0 0 151 151" fill="none" xmlns="http://www.w3.org/2000/svg">
<path d="M122.687 81.7916V58.9403C122.687 37.0894 122.687 26.1607 116.238 19.372C109.789 12.5833 99.4082 12.5833 78.6457 12.5833H59.7707C39.0082 12.5833 28.6269 12.5833 22.178 19.3783C15.729 26.1544 15.729 37.0831 15.729 58.934V92.0533C15.729 113.904 15.729 124.833 22.178 131.622C28.6269 138.41 39.0082 138.417 59.7707 138.417H69.2082M84.9373 125.833C84.9373 125.833 91.229 125.833 97.5207 138.417C97.5207 138.417 117.509 106.958 135.271 100.667" stroke="#34C202" stroke-width="6.25" stroke-linecap="round" stroke-linejoin="round"/>
<path d="M44.0415 12.5833L44.5574 15.6851C45.8158 23.2162 46.4449 26.9849 49.0874 29.2248C51.7173 31.4583 55.5364 31.4583 63.1745 31.4583H75.2356C82.8674 31.4583 86.6864 31.4583 89.3289 29.2248C91.9714 26.9849 92.6006 23.2162 93.8526 15.6851L94.3748 12.5833M44.0415 100.667H69.2082M44.0415 69.2083H94.3748" stroke="#34C202" stroke-width="6.25" stroke-linecap="round" stroke-linejoin="round"/>
</svg>
