<svg xmlns="http://www.w3.org/2000/svg" xmlns:xlink="http://www.w3.org/1999/xlink" width="500" zoomAndPan="magnify" viewBox="0 0 375 89.999999" height="120" preserveAspectRatio="xMidYMid meet" version="1.0"><defs><g/><clipPath id="0cedb8293c"><path d="M 75.789062 26 L 129 26 L 129 72.925781 L 75.789062 72.925781 Z M 75.789062 26 " clip-rule="nonzero"/></clipPath><clipPath id="b132f7f3b3"><path d="M 87 18.949219 L 115 18.949219 L 115 37 L 87 37 Z M 87 18.949219 " clip-rule="nonzero"/></clipPath></defs><g clip-path="url(#0cedb8293c)"><path fill="#f61a1a" d="M 108.453125 26.972656 C 107.410156 26.972656 106.398438 27.070312 105.429688 27.242188 C 104.183594 27.082031 101.265625 26.890625 99.972656 26.890625 C 87.09375 26.890625 75.832031 31.71875 75.832031 48.617188 C 75.832031 62.347656 86.542969 73.480469 101.628906 73.480469 C 116.714844 73.480469 128.941406 62.347656 128.941406 48.617188 C 128.941406 31.523438 114.679688 26.972656 108.453125 26.972656 Z M 108.453125 26.972656 " fill-opacity="1" fill-rule="nonzero"/></g><g clip-path="url(#b132f7f3b3)"><path fill="#77b255" d="M 87.09375 18.988281 C 89.582031 21.476562 91.304688 22.433594 92.070312 26.449219 C 92.523438 28.828125 95.515625 28.746094 95.515625 28.746094 C 95.515625 28.746094 89.582031 31.425781 87.09375 33.910156 C 87.09375 33.910156 94.558594 31.425781 97.042969 31.425781 C 97.042969 31.425781 102.019531 33.910156 102.019531 36.398438 C 102.019531 36.398438 102.019531 31.425781 99.53125 31.425781 C 99.53125 31.425781 106.992188 31.425781 106.992188 36.398438 C 106.992188 36.398438 106.992188 28.9375 104.503906 28.9375 C 104.503906 28.9375 111.96875 26.449219 114.457031 28.9375 C 114.457031 28.9375 111.894531 26.324219 106.992188 26.449219 C 106.992188 26.449219 109.480469 23.960938 114.457031 23.960938 C 114.457031 23.960938 106.417969 21.667969 103.929688 26.640625 C 103.929688 26.640625 101.828125 24.535156 106.035156 20.328125 C 106.035156 20.328125 99.53125 21.476562 99.53125 26.449219 C 99.53125 26.449219 97.171875 26.390625 95.515625 24.535156 C 92.261719 20.902344 87.09375 18.988281 87.09375 18.988281 Z M 87.09375 18.988281 " fill-opacity="1" fill-rule="nonzero"/></g><g fill="#4caf50" fill-opacity="1"><g transform="translate(7.67394, 63.620132)"><g><path d="M 29.628906 0 L 29.628906 -17.398438 L 16.625 -18.898438 L 16.625 -13.921875 L 27.886719 -16.53125 C 24.84375 -12.421875 14.210938 -8.601562 8.121094 -8.601562 C 6.378906 -8.601562 3.722656 -8.894531 3.722656 -11.164062 C 3.722656 -16.289062 17.109375 -26.875 26.824219 -26.875 L 26.824219 -36.441406 C 25.035156 -36.734375 23.152344 -37.023438 21.316406 -37.023438 C 7.152344 -37.023438 0.484375 -27.597656 0.484375 -18.316406 C 0.484375 -8.894531 7.347656 0.578125 21.460938 0.578125 C 23.296875 0.578125 26.292969 0.433594 29.628906 0 Z M 29.628906 0 "/></g></g></g><g fill="#4caf50" fill-opacity="1"><g transform="translate(39.121769, 67.763567)"><g><path d="M 1.160156 0 L 15.429688 0 C 11.371094 -4.464844 9.570312 -10.210938 9.570312 -17.34375 C 20.765625 -17.34375 19.027344 0.582031 30.6875 0.582031 C 31.90625 0.582031 33.179688 0.40625 34.6875 0 L 34.6875 -14.445312 C 33.46875 -14.328125 31.960938 -14.210938 30.453125 -14.210938 C 25.582031 -14.210938 20.070312 -15.3125 18.851562 -19.375 C 29.351562 -20.246094 34.746094 -25.871094 34.746094 -32.542969 C 34.746094 -42.230469 23.550781 -44.433594 12.761719 -44.433594 C 9.105469 -44.433594 4.003906 -44.144531 1.160156 -43.738281 C 3.886719 -37.183594 5.105469 -29.875 5.105469 -22.679688 C 5.105469 -14.675781 3.597656 -6.730469 1.160156 0 Z M 27.089844 -33.46875 C 28.539062 -33.46875 29.292969 -32.832031 29.292969 -31.730469 C 29.292969 -27.4375 18.5625 -20.476562 14.386719 -20.476562 C 12.9375 -20.476562 12.125 -21.113281 12.125 -22.21875 C 12.125 -26.507812 22.855469 -33.46875 27.089844 -33.46875 Z M 27.089844 -33.46875 "/></g></g></g><g fill="#4caf50" fill-opacity="1"><g transform="translate(125.607565, 73.978719)"><g><path d="M 75.558594 -58.3125 L 58.621094 -58.3125 C 63.417969 -50.578125 65.273438 -43.925781 65.273438 -38.28125 C 65.273438 -21.421875 48.257812 -13.6875 41.296875 -13.6875 C 39.828125 -13.6875 38.128906 -14.074219 38.128906 -15.777344 C 38.128906 -20.957031 55.914062 -29.542969 55.21875 -45.320312 C 54.988281 -49.1875 53.75 -53.515625 50.808594 -58.3125 L 31.320312 -58.3125 C 36.117188 -50.578125 38.050781 -43.925781 38.050781 -38.28125 C 38.050781 -21.421875 21.035156 -13.6875 13.996094 -13.6875 C 12.527344 -13.6875 10.90625 -14.074219 10.90625 -15.777344 C 10.90625 -20.882812 27.996094 -29.234375 27.996094 -44.390625 C 27.996094 -48.566406 26.679688 -53.128906 23.511719 -58.3125 L 1.546875 -58.3125 C 5.257812 -49.574219 6.804688 -39.828125 6.804688 -30.238281 C 6.804688 -19.566406 4.792969 -8.972656 1.546875 0 C 4.097656 0.542969 8.351562 1.003906 11.753906 1.003906 C 21.191406 1.003906 30.472656 -5.105469 32.867188 -14.460938 L 34.800781 -14.460938 C 34.027344 0.464844 48.492188 0.929688 59.859375 0.929688 C 65.117188 0.929688 70.222656 0.617188 75.558594 0 C 71.921875 -8.738281 70.375 -18.484375 70.375 -28.074219 C 70.375 -38.746094 72.308594 -49.339844 75.558594 -58.3125 Z M 75.558594 -58.3125 "/></g></g></g><g fill="#4caf50" fill-opacity="1"><g transform="translate(199.030513, 65.760901)"><g><path d="M 30.792969 -28.015625 L 30.792969 -38.101562 C 28.085938 -38.640625 25.308594 -38.910156 22.671875 -38.910156 C 11.03125 -38.910156 1.015625 -33.632812 1.015625 -18.746094 C 1.015625 -3.925781 13.265625 0.8125 22.398438 0.8125 C 25.511719 0.8125 28.691406 0.40625 31.804688 -0.203125 L 31.804688 -13.398438 C 29.84375 -12.519531 17.867188 -9.40625 10.421875 -9.40625 C 6.96875 -9.40625 4.535156 -10.082031 4.535156 -11.976562 C 4.535156 -16.511719 9.609375 -21.046875 15.632812 -24.160156 C 20.980469 -26.933594 26.867188 -28.015625 30.792969 -28.015625 Z M 30.792969 -28.015625 "/></g></g></g><g fill="#4caf50" fill-opacity="1"><g transform="translate(231.850801, 65.760901)"><g><path d="M 4.535156 -11.976562 C 4.535156 -14.820312 8.257812 -19.894531 16.105469 -24.566406 C 19.625 -26.59375 24.160156 -27.746094 26.730469 -27.746094 C 27.746094 -27.746094 28.488281 -27.609375 28.691406 -27.203125 C 29.910156 -25.175781 23.886719 -19.691406 15.699219 -19.691406 L 15.699219 -17.664062 C 23.886719 -17.664062 29.097656 -22.265625 30.859375 -26.390625 C 30.859375 -31.195312 29.777344 -35.730469 28.21875 -38.101562 C 25.378906 -38.640625 22.398438 -38.910156 20.167969 -38.910156 C 7.242188 -38.910156 1.015625 -28.761719 1.015625 -18.746094 C 1.015625 -3.925781 13.195312 0.8125 22.398438 0.8125 C 25.511719 0.8125 28.691406 0.40625 31.804688 -0.203125 L 31.804688 -13.398438 C 30.113281 -12.046875 18.675781 -8.59375 11.164062 -8.59375 C 7.308594 -8.59375 4.535156 -9.472656 4.535156 -11.976562 Z M 4.535156 -11.976562 "/></g></g></g><g fill="#4caf50" fill-opacity="1"><g transform="translate(264.671089, 65.760901)"><g><path d="M 1.152344 0 L 14.550781 0 C 6.765625 -12.859375 15.496094 -26.664062 25.175781 -26.664062 C 25.984375 -26.664062 26.867188 -26.527344 27.679688 -26.324219 L 27.679688 -38.101562 C 25.984375 -38.640625 24.496094 -38.910156 23.144531 -38.910156 C 14.007812 -38.910156 13.941406 -26.59375 12.722656 -21.113281 L 11.640625 -21.25 L 14.480469 -38.101562 L 1.152344 -38.101562 C 6.5625 -23.210938 6.5625 -14.886719 1.152344 0 Z M 1.152344 0 "/></g></g></g><g fill="#4caf50" fill-opacity="1"><g transform="translate(294.921345, 65.352579)"><g><path d="M 0.0976562 -35.046875 C 0.0976562 -32.515625 2.53125 -30.777344 6.253906 -30.777344 C 9.929688 -30.777344 12.359375 -32.515625 12.359375 -35.046875 C 12.359375 -37.53125 9.929688 -39.21875 6.253906 -39.21875 C 2.53125 -39.21875 0.0976562 -37.53125 0.0976562 -35.046875 Z M 0.746094 0 L 11.664062 0 C 6.703125 -9.433594 7.695312 -19.507812 11.664062 -27.949219 L 0.746094 -27.949219 C 5.757812 -18.515625 4.765625 -8.4375 0.746094 0 Z M 0.746094 0 "/></g></g></g><g fill="#4caf50" fill-opacity="1"><g transform="translate(307.029256, 64.725052)"><g><path d="M 4.535156 -11.976562 C 4.535156 -14.820312 8.257812 -19.894531 16.105469 -24.566406 C 19.625 -26.59375 24.160156 -27.746094 26.730469 -27.746094 C 27.746094 -27.746094 28.488281 -27.609375 28.691406 -27.203125 C 29.910156 -25.175781 23.886719 -19.691406 15.699219 -19.691406 L 15.699219 -17.664062 C 23.886719 -17.664062 29.097656 -22.265625 30.859375 -26.390625 C 30.859375 -31.195312 29.777344 -35.730469 28.21875 -38.101562 C 25.378906 -38.640625 22.398438 -38.910156 20.167969 -38.910156 C 7.242188 -38.910156 1.015625 -28.761719 1.015625 -18.746094 C 1.015625 -3.925781 13.195312 0.8125 22.398438 0.8125 C 25.511719 0.8125 28.691406 0.40625 31.804688 -0.203125 L 31.804688 -13.398438 C 30.113281 -12.046875 18.675781 -8.59375 11.164062 -8.59375 C 7.308594 -8.59375 4.535156 -9.472656 4.535156 -11.976562 Z M 4.535156 -11.976562 "/></g></g></g><g fill="#4caf50" fill-opacity="1"><g transform="translate(341.414159, 64.725052)"><g><path d="M 0.675781 0 C 3.316406 0.339844 8.390625 0.8125 11.4375 0.8125 C 20.371094 0.8125 29.777344 -1.488281 29.777344 -11.097656 C 29.777344 -20.234375 21.453125 -22.128906 13.601562 -22.128906 C 10.828125 -22.128906 8.054688 -21.722656 5.957031 -21.722656 C 4.535156 -21.722656 2.570312 -21.859375 2.570312 -23.683594 C 2.570312 -26.460938 8.324219 -28.691406 13.128906 -28.691406 C 20.910156 -28.691406 24.496094 -26.796875 27 -25.445312 L 27 -38.101562 C 24.496094 -38.503906 21.65625 -38.910156 18.746094 -38.910156 C 5.550781 -38.910156 0.746094 -32.007812 0.746094 -25.785156 C 0.746094 -16.578125 11.097656 -16.039062 18.878906 -15.699219 C 23.617188 -15.496094 27.40625 -15.363281 27.40625 -13.398438 C 27.40625 -11.503906 24.226562 -9.472656 18.136719 -9.472656 C 13.738281 -9.472656 7.917969 -10.488281 0.675781 -13.398438 Z M 0.675781 0 "/></g></g></g></svg>