<svg xmlns="http://www.w3.org/2000/svg" xmlns:xlink="http://www.w3.org/1999/xlink" width="500" zoomAndPan="magnify" viewBox="0 0 375 374.999991" height="500" preserveAspectRatio="xMidYMid meet" version="1.0"><defs><clipPath id="b917e0d0d2"><path d="M 5.15625 244 L 369.65625 244 L 369.65625 375 L 5.15625 375 Z M 5.15625 244 " clip-rule="nonzero"/></clipPath></defs><g clip-path="url(#b917e0d0d2)"><path fill="#f2f2f2" d="M 369.132812 374.992188 L 5.679688 374.992188 L 69.285156 244.6875 L 305.527344 244.6875 Z M 369.132812 374.992188 " fill-opacity="1" fill-rule="nonzero"/></g><path fill="#4cdbc4" d="M 35.214844 358.324219 L 80.644531 252.265625 L 294.171875 252.265625 L 339.601562 358.324219 Z M 35.214844 358.324219 " fill-opacity="1" fill-rule="nonzero"/><path fill="#54c0eb" d="M 149.546875 304.539062 L 143.488281 358.324219 L 339.601562 358.324219 L 334.300781 347.71875 Z M 149.546875 304.539062 " fill-opacity="1" fill-rule="nonzero"/><path fill="#54c0eb" d="M 142.730469 296.203125 L 149.546875 252.265625 L 80.644531 252.265625 L 70.042969 278.023438 Z M 142.730469 296.203125 " fill-opacity="1" fill-rule="nonzero"/><path fill="#ffffff" d="M 119.257812 358.324219 L 154.847656 358.324219 L 164.691406 252.265625 L 139.703125 252.265625 Z M 119.257812 358.324219 " fill-opacity="1" fill-rule="nonzero"/><path fill="#ffffff" d="M 72.3125 271.964844 L 64.742188 289.386719 L 322.1875 358.324219 L 339.601562 358.324219 L 330.511719 337.113281 Z M 72.3125 271.964844 " fill-opacity="1" fill-rule="nonzero"/><path fill="#ff7058" d="M 270.699219 46.207031 C 224.507812 -0.0078125 149.546875 -0.0078125 103.355469 46.207031 C 57.171875 92.417969 57.171875 167.417969 103.355469 213.628906 L 186.648438 296.96875 L 269.9375 213.628906 C 316.882812 167.417969 316.882812 92.417969 270.699219 46.207031 Z M 270.699219 46.207031 " fill-opacity="1" fill-rule="nonzero"/><path fill="#ffffff" d="M 124.558594 129.535156 C 124.558594 94.691406 152.574219 66.660156 187.40625 66.660156 C 222.238281 66.660156 250.25 94.691406 250.25 129.535156 C 250.25 164.386719 222.238281 192.417969 187.40625 192.417969 C 152.574219 192.417969 124.558594 164.386719 124.558594 129.535156 Z M 124.558594 129.535156 " fill-opacity="1" fill-rule="nonzero"/></svg>