<svg width="191" height="191" viewBox="0 0 191 191" fill="none" xmlns="http://www.w3.org/2000/svg">
<path d="M138.244 157.79L160.846 135.538L155.864 130.548L138.244 147.922L130.644 140.162L125.654 145.192L138.244 157.79ZM53.8778 69.4842H137.138V61.5259H53.8699L53.8778 69.4842ZM143.25 176.006C134.384 176.006 126.864 172.916 120.688 166.735C114.507 160.559 111.417 153.039 111.417 144.173C111.417 135.308 114.507 127.784 120.688 121.603C126.869 115.422 134.39 112.335 143.25 112.34C152.11 112.345 159.633 115.433 165.82 121.603C172.006 127.774 175.094 135.297 175.083 144.173C175.083 153.033 171.995 160.554 165.82 166.735C159.633 172.916 152.11 176.006 143.25 176.006ZM31.8333 165.287V44.694C31.8333 41.1286 33.0854 38.0939 35.5896 35.5896C38.0938 33.0854 41.1286 31.8333 44.6939 31.8333H146.314C149.869 31.8333 152.901 33.0854 155.41 35.5896C157.914 38.0939 159.167 41.1286 159.167 44.694V91.9983C154.434 90.4438 149.585 89.6453 144.619 89.6029C139.653 89.5604 134.758 90.1997 129.936 91.5208H53.8699V99.4791H112.061C108.071 102.243 104.554 105.488 101.508 109.212C98.4631 112.937 95.9535 117.038 93.9799 121.516H53.8778V129.474H91.3616C90.7886 131.618 90.3429 133.78 90.0246 135.96C89.7063 138.141 89.5444 140.417 89.5391 142.788C89.5391 146.423 89.9185 150.028 90.6772 153.604C91.4359 157.18 92.5766 160.626 94.0993 163.942L93.8287 164.212L84.796 157.639L74.084 165.287L63.3721 157.639L52.6602 165.287L41.9403 157.639L31.8333 165.287Z" fill="#34C202"/>
</svg>
