<svg width="60" height="55" viewBox="0 0 60 55" fill="none" xmlns="http://www.w3.org/2000/svg">
<path d="M9.56714 19.1341L31.8902 6.37802L50.9988 17.2972C51.9754 17.8551 52.7872 18.6613 53.3517 19.6341C53.9162 20.6069 54.2135 21.7117 54.2133 22.8365V37.7547C54.2135 38.8795 53.9162 39.9843 53.3517 40.9571C52.7872 41.9299 51.9754 42.7361 50.9988 43.294L35.0537 52.405C34.0902 52.9554 32.9998 53.2449 31.8902 53.2449C30.7806 53.2449 29.6902 52.9554 28.7267 52.405L12.7817 43.294C11.805 42.7361 10.9933 41.9299 10.4287 40.9571C9.86418 39.9843 9.56694 38.8795 9.56714 37.7547V28.8191" stroke="#34C202" stroke-width="3" stroke-linecap="round" stroke-linejoin="round"/>
<path d="M28.8669 30.2637C29.7961 30.7639 30.8349 31.0257 31.8901 31.0257C32.9454 31.0257 33.9841 30.7639 34.9133 30.2637L52.6187 20.7286M31.8901 31.8901V52.6187" stroke="#34C202" stroke-width="3" stroke-linecap="round" stroke-linejoin="round"/>
<path fill-rule="evenodd" clip-rule="evenodd" d="M9.56703 19.1341L31.8901 31.8901L22.3231 35.0791L0 22.3231L9.56703 19.1341ZM31.8901 6.37802L54.2132 19.1341L60.5912 12.756L38.2681 0L31.8901 6.37802Z" stroke="#34C202" stroke-width="3" stroke-linecap="round" stroke-linejoin="round"/>
</svg>
