<svg width="151" height="151" viewBox="0 0 151 151" fill="none" xmlns="http://www.w3.org/2000/svg">
<path d="M39.3228 12.5833C35.5683 12.5833 31.9676 14.0748 29.3128 16.7296C26.658 19.3844 25.1665 22.9851 25.1665 26.7396V124.26C25.1665 128.015 26.658 131.616 29.3128 134.27C31.9676 136.925 35.5683 138.417 39.3228 138.417H86.5103C90.2419 138.417 93.8228 136.944 96.4738 134.317C99.1249 131.691 100.632 128.124 100.667 124.393V114.829C100.667 113.578 100.169 112.377 99.2844 111.493C98.3995 110.608 97.1992 110.11 95.9478 110.11C93.0976 110.11 91.2982 109.337 90.0588 108.336C88.7501 107.285 87.6679 105.662 86.8437 103.372C85.1261 98.6219 84.9436 92.3616 84.9436 86.5104C84.9435 85.3144 84.4893 84.163 83.6727 83.2891L82.6346 82.1754C82.2929 81.7983 81.9361 81.4352 81.565 81.087C81.0994 80.6466 79.6775 79.2939 74.122 73.7383C71.1712 70.7875 69.5416 68.296 69.0068 66.3896C68.7856 65.7303 68.7507 65.0227 68.9062 64.3449C69.1391 63.5608 69.5857 62.8571 70.196 62.3126C70.7395 61.7056 71.4408 61.2613 72.2219 61.0291C72.8977 60.8749 73.603 60.9097 74.2604 61.1298C76.1605 61.6646 78.652 63.3067 81.6028 66.2575C85.0003 69.655 88.2279 72.8449 91.1158 75.695C95.8974 80.4264 99.7542 84.2517 101.937 86.5796C102.793 87.4873 103.973 88.0194 105.219 88.0596C106.466 88.0998 107.678 87.6449 108.59 86.7943C109.502 85.9437 110.04 84.7666 110.087 83.5203C110.134 82.274 109.685 81.0598 108.839 80.1432C106.162 77.3419 103.437 74.5858 100.667 71.876V50.7108L118.547 68.5917C121.196 71.2468 122.694 74.8456 122.694 78.5955V133.698C122.694 134.949 123.191 136.15 124.076 137.035C124.961 137.919 126.161 138.417 127.412 138.417C128.664 138.417 129.864 137.919 130.749 137.035C131.634 136.15 132.131 134.949 132.131 133.698V78.6018C132.131 75.5027 131.52 72.4341 130.334 69.5712C129.147 66.7082 127.408 64.1071 125.217 61.9163L100.667 37.3662V26.7333C100.665 22.9799 99.1726 19.3808 96.518 16.7274C93.8634 14.0739 90.2636 12.5833 86.5103 12.5833H39.3228ZM77.9662 106.581C78.5765 108.267 79.3629 109.941 80.3822 111.501C77.9779 112.655 75.9488 114.466 74.5284 116.723C73.1081 118.981 72.3543 121.593 72.354 124.26V128.979H53.479V124.26C53.479 120.506 51.9875 116.905 49.3327 114.25C46.6779 111.596 43.0772 110.104 39.3228 110.104H34.604V40.8958H39.3228C43.0772 40.8958 46.6779 39.4044 49.3327 36.7495C51.9875 34.0947 53.479 30.494 53.479 26.7396V22.0208H72.354V26.7396C72.354 30.494 73.8455 34.0947 76.5003 36.7495C79.1551 39.4044 82.7558 40.8958 86.5103 40.8958H91.229V62.5266L88.2782 59.5821C84.9373 56.2412 81.0554 53.2401 76.8211 52.0446C74.5612 51.3735 72.163 51.3192 69.8751 51.8874C68.4554 52.249 67.1097 52.8558 65.8988 53.6805C62.3416 53.1953 58.7197 53.5871 55.3487 54.8219C51.9776 56.0567 48.9596 58.097 46.5574 60.7651C44.1553 63.4331 42.4419 66.648 41.5665 70.1298C40.6911 73.6115 40.6802 77.2545 41.5349 80.7414C42.3895 84.2283 44.0837 87.4533 46.4699 90.1357C48.8561 92.818 51.8619 94.8762 55.2256 96.1311C58.5892 97.386 62.2087 97.7994 65.7686 97.3354C69.3286 96.8714 72.7212 95.5441 75.6508 93.469C75.8836 97.7725 76.4688 102.447 77.9662 106.581ZM50.3332 75.5C50.3326 72.759 51.2271 70.0927 52.8806 67.9066C54.5341 65.7205 56.8562 64.1341 59.4938 63.3885C59.2584 65.2502 59.4039 67.1404 59.9217 68.9441C61.1108 73.1784 64.1056 77.0666 67.4528 80.4138L71.6368 84.5789C69.8573 86.2893 67.6142 87.4387 65.1865 87.8839C62.7588 88.3292 60.2538 88.0507 57.9832 87.083C55.7126 86.1154 53.7767 84.5013 52.4165 82.4418C51.0563 80.3822 50.3318 77.9682 50.3332 75.5ZM34.604 26.7396C34.604 25.4881 35.1012 24.2878 35.9861 23.4029C36.871 22.518 38.0713 22.0208 39.3228 22.0208H44.0415V26.7396C44.0415 27.9911 43.5444 29.1913 42.6594 30.0762C41.7745 30.9612 40.5742 31.4583 39.3228 31.4583H34.604V26.7396ZM81.7915 22.0208H86.5103C87.7617 22.0208 88.962 22.518 89.8469 23.4029C90.7318 24.2878 91.229 25.4881 91.229 26.7396V31.4583H86.5103C85.2588 31.4583 84.0585 30.9612 83.1736 30.0762C82.2887 29.1913 81.7915 27.9911 81.7915 26.7396V22.0208ZM91.229 119.542V124.26C91.229 125.512 90.7318 126.712 89.8469 127.597C88.962 128.482 87.7617 128.979 86.5103 128.979H81.7915V124.26C81.7915 123.009 82.2887 121.809 83.1736 120.924C84.0585 120.039 85.2588 119.542 86.5103 119.542H91.229ZM44.0415 128.979H39.3228C38.0713 128.979 36.871 128.482 35.9861 127.597C35.1012 126.712 34.604 125.512 34.604 124.26V119.542H39.3228C40.5742 119.542 41.7745 120.039 42.6594 120.924C43.5444 121.809 44.0415 123.009 44.0415 124.26V128.979Z" fill="#34C202"/>
</svg>
