<svg width="153" height="153" viewBox="0 0 153 153" fill="none" xmlns="http://www.w3.org/2000/svg">
<path fill-rule="evenodd" clip-rule="evenodd" d="M23.5386 63.5656C23.5386 58.8835 25.3985 54.3932 28.7093 51.0824C32.02 47.7717 36.5103 45.9117 41.1924 45.9117H111.808C116.49 45.9117 120.98 47.7717 124.291 51.0824C127.602 54.3932 129.462 58.8835 129.462 63.5656V92.9887C129.462 97.6708 127.602 102.161 124.291 105.472C120.98 108.783 116.49 110.643 111.808 110.643H41.1924C36.5103 110.643 32.02 108.783 28.7093 105.472C25.3985 102.161 23.5386 97.6708 23.5386 92.9887V63.5656ZM41.1924 57.681C39.6317 57.681 38.1349 58.301 37.0314 59.4045C35.9278 60.5081 35.3078 62.0049 35.3078 63.5656V92.9887C35.3078 94.5494 35.9278 96.0461 37.0314 97.1497C38.1349 98.2533 39.6317 98.8733 41.1924 98.8733H111.808C113.368 98.8733 114.865 98.2533 115.969 97.1497C117.072 96.0461 117.692 94.5494 117.692 92.9887V63.5656C117.692 62.0049 117.072 60.5081 115.969 59.4045C114.865 58.301 113.368 57.681 111.808 57.681H41.1924Z" fill="#34C202"/>
<path fill-rule="evenodd" clip-rule="evenodd" d="M76.4824 90.0464C78.0497 90.0814 79.6082 89.803 81.0664 89.2274C82.5246 88.6519 83.8532 87.7908 84.9741 86.6947C86.0949 85.5986 86.9855 84.2897 87.5935 82.8447C88.2015 81.3997 88.5147 79.8478 88.5147 78.2801C88.5147 76.7124 88.2015 75.1605 87.5935 73.7155C86.9855 72.2705 86.0949 70.9615 84.9741 69.8654C83.8532 68.7694 82.5246 67.9083 81.0664 67.3327C79.6082 66.7572 78.0497 66.4787 76.4824 66.5138C73.361 66.5138 70.3674 67.7538 68.1603 69.9609C65.9531 72.1681 64.7131 75.1616 64.7131 78.283C64.7131 81.4044 65.9531 84.398 68.1603 86.6051C70.3674 88.8123 73.361 90.0522 76.4824 90.0522M128.285 86.2155C127.938 86.9071 127.459 87.5236 126.875 88.0299C126.29 88.5362 125.611 88.9223 124.877 89.166C124.143 89.4098 123.368 89.5064 122.597 89.4505C121.826 89.3946 121.073 89.1871 120.382 88.84L120.37 88.8341L120.335 88.8165L120.217 88.7576C119.571 88.4282 118.93 88.0908 118.293 87.7455C117.039 87.0687 115.297 86.0978 113.361 84.9385C109.613 82.6847 104.676 79.4364 101.21 75.9704C97.7376 72.4984 94.9306 68.1615 93.0534 64.8896C91.9632 62.9854 90.954 61.0359 90.0287 59.0462L89.9817 58.9403L89.9699 58.905L89.9581 58.8873L95.2778 56.5335L89.964 58.8873C89.3757 57.4683 89.3655 55.8754 89.9358 54.449C90.506 53.0226 91.6115 51.8758 93.016 51.2534C94.4204 50.6311 96.0126 50.5826 97.4523 51.1184C98.892 51.6542 100.065 52.7317 100.721 54.1208V54.1384L100.751 54.1914L100.868 54.4444C101.606 56.0051 102.405 57.5362 103.263 59.0344C104.934 61.9532 107.141 65.2604 109.53 67.6554C111.92 70.0446 115.809 72.6809 119.417 74.8523C121.314 75.9879 123.245 77.0673 125.207 78.0888L125.56 78.2712L125.637 78.3124L125.654 78.3242M128.279 86.2214C128.978 84.8261 129.094 83.2102 128.602 81.7293C128.11 80.2483 127.049 79.0234 125.654 78.3242L128.279 86.2214ZM24.6801 70.3388C25.3793 68.9436 26.6041 67.8832 28.0851 67.391C29.5661 66.8988 31.182 67.0151 32.5772 67.7142L32.5949 67.726L32.6302 67.7437L32.7479 67.8025C33.3926 68.1299 34.0321 68.4673 34.6663 68.8147C35.9256 69.4914 37.6674 70.4624 39.5976 71.6216C43.352 73.8696 48.2833 77.1179 51.7552 80.5839C55.2212 84.0558 58.0282 88.3987 59.9054 91.6646C60.996 93.5707 62.0052 95.5222 62.9301 97.5139L62.9772 97.6199L62.9948 97.6552L63.0007 97.6728C63.3137 98.3795 63.4844 99.141 63.5031 99.9136C63.5218 100.686 63.3881 101.455 63.1097 102.176C62.8313 102.897 62.4136 103.556 61.8805 104.116C61.3473 104.675 60.7092 105.125 60.0025 105.438C59.2958 105.751 58.5344 105.921 57.7617 105.94C56.989 105.959 56.2202 105.825 55.4992 105.547C54.7781 105.268 54.119 104.85 53.5594 104.317C52.9998 103.784 52.5507 103.146 52.2377 102.439V102.428L52.2142 102.369L52.0965 102.116C51.3587 100.555 50.5597 99.0237 49.7015 97.5257C48.0244 94.6128 45.8176 91.2998 43.4344 88.9106C41.0393 86.5215 37.1496 83.8793 33.5423 81.7137C31.6445 80.5762 29.7135 79.4949 27.7519 78.4713L27.4047 78.2948L27.3223 78.2477L27.3046 78.2418M24.6801 70.3388C24.333 71.0299 24.1255 71.7827 24.0696 72.5541C24.0137 73.3255 24.1103 74.1004 24.3541 74.8344C24.5979 75.5684 24.9839 76.2471 25.4902 76.8318C25.9965 77.4165 26.613 77.8956 27.3046 78.2418L24.6801 70.3388Z" fill="#34C202"/>
<path d="M25.2627 33.5835C24.1908 32.4737 23.5977 30.9872 23.6111 29.4443C23.6245 27.9013 24.2434 26.4254 25.3344 25.3343C26.4255 24.2433 27.9014 23.6244 29.4443 23.611C30.9872 23.5976 32.4737 24.1907 33.5836 25.2627L127.737 119.417C128.809 120.526 129.402 122.013 129.389 123.556C129.376 125.099 128.757 126.575 127.666 127.666C126.575 128.757 125.099 129.376 123.556 129.389C122.013 129.402 120.526 128.809 119.417 127.737L25.2627 33.5835Z" fill="#34C202"/>
<path fill-rule="evenodd" clip-rule="evenodd" d="M76.5 141.231C112.249 141.231 141.231 112.249 141.231 76.5C141.231 40.751 112.249 11.7692 76.5 11.7692C40.751 11.7692 11.7692 40.751 11.7692 76.5C11.7692 112.249 40.751 141.231 76.5 141.231ZM76.5 153C118.752 153 153 118.752 153 76.5C153 34.2485 118.752 0 76.5 0C34.2485 0 0 34.2485 0 76.5C0 118.752 34.2485 153 76.5 153Z" fill="#34C202"/>
</svg>
