<svg width="177" height="177" viewBox="0 0 177 177" fill="none" xmlns="http://www.w3.org/2000/svg">
<path d="M81.125 132.75H95.875V125.375H103.25C105.34 125.375 107.092 124.667 108.508 123.251C109.924 121.835 110.63 120.085 110.625 118V95.875C110.625 93.7854 109.917 92.0351 108.501 90.624C107.085 89.2129 105.335 88.5049 103.25 88.5H81.125V81.125H110.625V66.375H95.875V59H81.125V66.375H73.75C71.6604 66.375 69.9101 67.083 68.499 68.499C67.0879 69.915 66.3799 71.6653 66.375 73.75V95.875C66.375 97.9646 67.083 99.7174 68.499 101.133C69.915 102.549 71.6653 103.255 73.75 103.25H95.875V110.625H66.375V125.375H81.125V132.75ZM44.25 162.25C40.1937 162.25 36.7226 160.807 33.8365 157.921C30.9504 155.035 29.5049 151.561 29.5 147.5V29.5C29.5 25.4437 30.9455 21.9726 33.8365 19.0865C36.7275 16.2004 40.1987 14.7549 44.25 14.75H103.25L147.5 59V147.5C147.5 151.556 146.057 155.03 143.171 157.921C140.285 160.812 136.811 162.255 132.75 162.25H44.25ZM44.25 147.5H132.75V65.2687L96.9812 29.5H44.25V147.5Z" fill="#34C202"/>
</svg>
