<svg width="151" height="151" viewBox="0 0 151 151" fill="none" xmlns="http://www.w3.org/2000/svg">
<path d="M37.7498 122.688C41.0871 122.688 44.2878 121.362 46.6476 119.002C49.0074 116.642 50.3332 113.442 50.3332 110.104C50.3332 106.767 49.0074 103.566 46.6476 101.206C44.2878 98.8466 41.0871 97.5209 37.7498 97.5209C34.4125 97.5209 31.2119 98.8466 28.8521 101.206C26.4922 103.566 25.1665 106.767 25.1665 110.104C25.1665 113.442 26.4922 116.642 28.8521 119.002C31.2119 121.362 34.4125 122.688 37.7498 122.688ZM110.104 122.688C113.441 122.688 116.642 121.362 119.002 119.002C121.362 116.642 122.687 113.442 122.687 110.104C122.687 106.767 121.362 103.566 119.002 101.206C116.642 98.8466 113.441 97.5209 110.104 97.5209C106.767 97.5209 103.566 98.8466 101.206 101.206C98.8464 103.566 97.5207 106.767 97.5207 110.104C97.5207 113.442 98.8464 116.642 101.206 119.002C103.566 121.362 106.767 122.688 110.104 122.688Z" stroke="#E0E0E0" stroke-width="8.33333" stroke-linejoin="round"/>
<path d="M25.1665 110.104H6.2915V34.6042H97.5207V110.104M97.5207 110.104H50.3332M97.5207 110.104V56.625H124.484L144.708 83.3646V110.104H125.239" stroke="#E0E0E0" stroke-width="8.33333" stroke-linecap="round" stroke-linejoin="round"/>
</svg>
