<svg width="177" height="177" viewBox="0 0 177 177" fill="none" xmlns="http://www.w3.org/2000/svg">
<path d="M125.375 59V36.875C125.375 34.919 124.598 33.0432 123.215 31.6601C121.832 30.277 119.956 29.5 118 29.5H44.25C40.3381 29.5 36.5863 31.054 33.8202 33.8202C31.054 36.5863 29.5 40.3381 29.5 44.25M29.5 44.25C29.5 48.1619 31.054 51.9137 33.8202 54.6798C36.5863 57.446 40.3381 59 44.25 59H132.75C134.706 59 136.582 59.777 137.965 61.1601C139.348 62.5432 140.125 64.419 140.125 66.375V88.5M29.5 44.25V132.75C29.5 136.662 31.054 140.414 33.8202 143.18C36.5863 145.946 40.3381 147.5 44.25 147.5H132.75C134.706 147.5 136.582 146.723 137.965 145.34C139.348 143.957 140.125 142.081 140.125 140.125V118" stroke="#34C202" stroke-width="8.33333" stroke-linecap="round" stroke-linejoin="round"/>
<path d="M147.5 88.5V118H118C114.088 118 110.336 116.446 107.57 113.68C104.804 110.914 103.25 107.162 103.25 103.25C103.25 99.3381 104.804 95.5863 107.57 92.8202C110.336 90.054 114.088 88.5 118 88.5H147.5Z" stroke="#34C202" stroke-width="8.33333" stroke-linecap="round" stroke-linejoin="round"/>
</svg>
